<svg width="24" height="24" viewBox="0 0 24 24" fill="none" xmlns="http://www.w3.org/2000/svg">
<path d="M9.30719 21H14.6928C16.429 21 17.297 21 18.009 20.7168C18.8493 20.3827 19.5516 19.7736 20.0013 18.989C20.3823 18.3242 20.505 17.4649 20.7505 15.7462V15.7461C20.8299 15.1907 20.8696 14.9129 20.7988 14.6932C20.7153 14.4342 20.5299 14.2204 20.2853 14.1012C20.0778 14 19.7972 14 19.2361 14H17.8028C17.0882 14 16.7309 14 16.4105 14.112C16.2148 14.1804 16.0309 14.2788 15.8655 14.4037C15.5946 14.6082 15.3964 14.9054 15 15.5C14.6036 16.0946 14.4054 16.3918 14.1345 16.5963C13.9691 16.7212 13.7852 16.8196 13.5895 16.888C13.2691 17 12.9118 17 12.1972 17H11.8028C11.0882 17 10.7309 17 10.4105 16.888C10.2148 16.8196 10.0309 16.7212 9.86549 16.5963C9.59456 16.3918 9.39637 16.0946 9 15.5C8.60363 14.9054 8.40544 14.6082 8.13451 14.4037C7.96906 14.2788 7.7852 14.1804 7.58952 14.112C7.26908 14 6.91179 14 6.19722 14H4.76388C4.20275 14 3.92219 14 3.71472 14.1012C3.47013 14.2204 3.28471 14.4342 3.20123 14.6932C3.13042 14.9129 3.17009 15.1907 3.24945 15.7462C3.49498 17.4649 3.61774 18.3242 3.99874 18.989C4.44841 19.7736 5.15068 20.3827 5.99099 20.7168C6.70297 21 7.57104 21 9.30719 21Z" fill="#636F7E" fill-opacity="0.16"/>
<path fill-rule="evenodd" clip-rule="evenodd" d="M11.8858 2.25H11.8369C10.3472 2.24999 9.16119 2.24998 8.21365 2.36466C7.2355 2.48305 6.42621 2.73162 5.72961 3.28767C5.03301 3.84371 4.61127 4.57779 4.27904 5.50538C3.95721 6.40394 3.69438 7.56045 3.36425 9.01308L3.3534 9.06081L2.73681 11.7738L2.72919 11.8073C2.59626 12.3922 2.52013 12.7271 2.47048 13.067C2.3825 13.6694 2.35761 14.2792 2.39622 14.8867C2.418 15.2295 2.46659 15.5696 2.55141 16.1633L2.55628 16.1973L2.57629 16.3376C2.75544 17.5937 2.87003 18.3971 3.18921 19.0602C3.75709 20.2399 4.78675 21.133 6.03495 21.5283C6.73651 21.7505 7.54809 21.7503 8.81692 21.75L8.95856 21.75H15.0414L15.1831 21.75C16.4519 21.7503 17.2635 21.7505 17.965 21.5283C19.2132 21.133 20.2429 20.2399 20.8108 19.0602C21.1299 18.3971 21.2445 17.5937 21.4237 16.3376L21.4237 16.3376L21.4437 16.1973L21.4486 16.1632C21.5334 15.5695 21.582 15.2295 21.6038 14.8867C21.6424 14.2792 21.6175 13.6694 21.5295 13.067C21.4798 12.7272 21.4037 12.3922 21.2708 11.8074L21.2632 11.7738L20.6466 9.06082L20.6357 9.01309C20.3056 7.56045 20.0428 6.40394 19.7209 5.50538C19.3887 4.57779 18.967 3.84371 18.2704 3.28767C17.5738 2.73162 16.7645 2.48305 15.7863 2.36466C14.8388 2.24998 13.6528 2.24999 12.1631 2.25H12.1142H12H11.8858ZM6.66539 4.45998C7.06349 4.14221 7.56716 3.95386 8.39389 3.85379C9.24087 3.75128 10.3361 3.75 11.8858 3.75H12H12.1142C13.6639 3.75 14.7591 3.75128 15.6061 3.85379C16.4328 3.95386 16.9365 4.14221 17.3346 4.45998C17.7327 4.77776 18.028 5.22716 18.3088 6.01116C18.5965 6.81436 18.8404 7.88205 19.1839 9.39325L19.8005 12.1062C19.9372 12.7079 19.9999 12.9858 20.0402 13.25H17.8028L17.6958 13.2499C17.0863 13.2494 16.6064 13.249 16.163 13.404C15.8939 13.498 15.6411 13.6333 15.4137 13.805C15.0388 14.088 14.7729 14.4875 14.4352 14.9949L14.3759 15.084C13.9498 15.7232 13.828 15.888 13.6827 15.9977C13.5793 16.0758 13.4643 16.1373 13.342 16.18C13.1701 16.2401 12.9654 16.25 12.1972 16.25H11.8028C11.0345 16.25 10.8298 16.2401 10.6579 16.18C10.5356 16.1373 10.4207 16.0758 10.3173 15.9977C10.172 15.888 10.0502 15.7232 9.62402 15.084L9.56474 14.995C9.22705 14.4875 8.96118 14.088 8.58632 13.805C8.35882 13.6333 8.10602 13.498 7.83696 13.404C7.3936 13.249 6.9137 13.2494 6.30416 13.2499L6.19721 13.25H3.95979C4.0001 12.9858 4.06277 12.7079 4.19951 12.1062L4.8161 9.39325C5.15956 7.88205 5.40353 6.81436 5.6912 6.01116C5.972 5.22716 6.26728 4.77776 6.66539 4.45998ZM3.89068 14.75C3.89148 14.7639 3.89232 14.7777 3.8932 14.7916C3.91081 15.0688 3.95021 15.3482 4.0412 15.9852C4.24761 17.4301 4.33532 17.9828 4.54078 18.4096C4.92933 19.2168 5.63383 19.8278 6.48786 20.0983C6.93945 20.2413 7.49901 20.25 8.95856 20.25H15.0414C16.501 20.25 17.0605 20.2413 17.5121 20.0983C18.3661 19.8278 19.0707 19.2168 19.4592 18.4096C19.6647 17.9828 19.7524 17.4301 19.9588 15.9852C20.0498 15.3482 20.0892 15.0688 20.1068 14.7916C20.1077 14.7777 20.1085 14.7639 20.1093 14.75H17.8028C17.0345 14.75 16.8298 14.7599 16.6579 14.82C16.5356 14.8627 16.4207 14.9242 16.3173 15.0023C16.172 15.112 16.0502 15.2768 15.624 15.916L15.5647 16.0051C15.2271 16.5125 14.9612 16.912 14.5863 17.195C14.3588 17.3667 14.106 17.502 13.837 17.596C13.3936 17.751 12.9137 17.7506 12.3042 17.7501L12.1972 17.75H11.8028L11.6958 17.7501C11.0863 17.7506 10.6064 17.751 10.163 17.596C9.89395 17.502 9.64114 17.3667 9.41365 17.195C9.03879 16.912 8.77292 16.5125 8.43522 16.005L8.37595 15.916C7.94982 15.2768 7.82801 15.112 7.68266 15.0023C7.57926 14.9242 7.46435 14.8627 7.34205 14.82C7.17014 14.7599 6.96542 14.75 6.19721 14.75H3.89068Z" fill="#00A3FF"/>
</svg>
