<svg width="28" height="28" viewBox="0 0 28 28" fill="none" xmlns="http://www.w3.org/2000/svg">
<rect x="3.18475" y="0.75" width="21.6304" height="26.5" rx="1.25" fill="#ACC1CD" stroke="#00A3FF" stroke-width="1.5"/>
<rect x="1.21741" y="1.21741" width="15.8261" height="6.08696" fill="#E9E9E9"/>
<rect x="17.0435" y="1.21741" width="9.73913" height="6.08696" fill="white"/>
<rect x="1.21741" y="10.9565" width="15.8261" height="6.08696" fill="#E9E9E9"/>
<rect x="17.0435" y="10.9565" width="9.73913" height="6.08696" fill="white"/>
<rect x="1.21741" y="20.6956" width="15.8261" height="6.08696" fill="#E9E9E9"/>
<rect x="17.0435" y="20.6956" width="9.73913" height="6.08696" fill="white"/>
<rect x="0.75" y="10.4891" width="26.5" height="7.02174" rx="3.25" stroke="#00A3FF" stroke-width="1.5"/>
<rect x="19.4783" y="13.3914" width="1.82609" height="1.82609" rx="0.913043" fill="#D9D9D9"/>
<rect x="23.1304" y="13.3914" width="1.82609" height="1.82609" rx="0.913043" fill="#00A3FF"/>
<rect x="0.75" y="20.2283" width="26.5" height="7.02174" rx="3.25" stroke="#00A3FF" stroke-width="1.5"/>
<rect x="19.4783" y="23.1304" width="1.82609" height="1.82609" rx="0.913043" fill="#FF9900"/>
<rect x="23.1304" y="23.1304" width="1.82609" height="1.82609" rx="0.913043" fill="#00A3FF"/>
<rect x="0.75" y="0.75" width="26.5" height="7.02174" rx="3.25" stroke="#00A3FF" stroke-width="1.5"/>
<rect x="19.4783" y="3.65216" width="1.82609" height="1.82609" rx="0.913043" fill="#D9D9D9"/>
<rect x="23.1304" y="3.65216" width="1.82609" height="1.82609" rx="0.913043" fill="#00A3FF"/>
</svg>
