<svg aria-hidden="true" style="position: absolute; width: 0; height: 0; overflow: hidden;" version="1.1" xmlns="http://www.w3.org/2000/svg" xmlns:xlink="http://www.w3.org/1999/xlink">
<defs>
<symbol id="acts" viewBox="0 0 32 32">
<path fill="#636f7e" style="fill: var(--color1, #636f7e)" opacity="0.16" d="M10.667 4h10.667c2.209 0 4 1.791 4 4v16c0 2.209-1.791 4-4 4h-10.667c-2.209 0-4-1.791-4-4v-16c0-2.209 1.791-4 4-4z"></path>
<path fill="#00a3ff" style="fill: var(--color2, #00a3ff)" d="M14.667 3h-0.073c-1.823-0-3.293-0-4.449 0.155-1.2 0.161-2.211 0.507-3.013 1.309-0.694 0.694-1.046 1.544-1.233 2.538-0.281 0.003-0.533 0.010-0.758 0.025-0.423 0.029-0.822 0.091-1.209 0.251-0.898 0.372-1.612 1.086-1.984 1.984-0.16 0.387-0.223 0.787-0.251 1.209-0.028 0.406-0.028 0.901-0.028 1.493v8.067c0 0.593 0 1.087 0.028 1.493 0.029 0.423 0.091 0.822 0.251 1.209 0.372 0.898 1.086 1.612 1.984 1.984 0.387 0.16 0.787 0.223 1.209 0.251 0.225 0.015 0.477 0.022 0.758 0.025 0.187 0.994 0.539 1.844 1.233 2.538 0.803 0.803 1.813 1.148 3.013 1.309 1.156 0.155 2.626 0.155 4.449 0.155h2.813c1.823 0 3.293 0 4.449-0.155 1.2-0.161 2.211-0.507 3.013-1.309 0.694-0.694 1.046-1.544 1.233-2.538 0.281-0.003 0.533-0.010 0.759-0.025 0.423-0.029 0.822-0.091 1.209-0.251 0.898-0.372 1.612-1.086 1.984-1.984 0.16-0.387 0.223-0.787 0.251-1.209 0.028-0.406 0.028-0.901 0.028-1.493v-8.067c0-0.593 0-1.087-0.028-1.493-0.029-0.423-0.091-0.822-0.251-1.209-0.372-0.898-1.086-1.612-1.984-1.984-0.387-0.16-0.787-0.223-1.209-0.251-0.225-0.015-0.477-0.022-0.759-0.025-0.187-0.994-0.539-1.844-1.233-2.538-0.803-0.803-1.813-1.148-3.013-1.309-1.156-0.155-2.626-0.155-4.449-0.155h-2.74zM26.299 9.006c0.034 0.851 0.034 1.822 0.034 2.921v8.146c0 1.099 0 2.070-0.034 2.921 0.16-0.003 0.299-0.009 0.425-0.017 0.321-0.022 0.477-0.061 0.58-0.104 0.408-0.169 0.733-0.494 0.902-0.902 0.043-0.103 0.082-0.259 0.104-0.58 0.023-0.33 0.023-0.756 0.023-1.391v-8c0-0.635-0.001-1.061-0.023-1.391-0.022-0.321-0.061-0.477-0.104-0.58-0.169-0.408-0.494-0.733-0.902-0.902-0.103-0.043-0.259-0.082-0.58-0.104-0.126-0.009-0.265-0.014-0.425-0.017zM5.276 9.023c0.126-0.009 0.265-0.014 0.425-0.017-0.034 0.851-0.034 1.822-0.034 2.921v8.146c0 1.099-0 2.070 0.034 2.921-0.16-0.003-0.299-0.009-0.425-0.017-0.321-0.022-0.477-0.061-0.58-0.104-0.408-0.169-0.733-0.494-0.902-0.902-0.043-0.103-0.082-0.259-0.104-0.58-0.022-0.33-0.023-0.756-0.023-1.391v-8c0-0.635 0.001-1.061 0.023-1.391 0.022-0.321 0.061-0.477 0.104-0.58 0.169-0.408 0.494-0.733 0.902-0.902 0.103-0.043 0.259-0.082 0.58-0.104zM8.545 5.879c0.369-0.369 0.887-0.61 1.865-0.741 1.007-0.135 2.342-0.138 4.256-0.138h2.667c1.914 0 3.249 0.002 4.256 0.138 0.978 0.132 1.496 0.372 1.865 0.741s0.61 0.887 0.741 1.865c0.135 1.007 0.137 2.342 0.137 4.256v8c0 1.914-0.002 3.249-0.137 4.256-0.132 0.978-0.372 1.496-0.741 1.865s-0.887 0.61-1.865 0.741c-1.007 0.135-2.342 0.137-4.256 0.137h-2.667c-1.914 0-3.249-0.002-4.256-0.137-0.978-0.132-1.496-0.372-1.865-0.741s-0.61-0.887-0.741-1.865c-0.135-1.007-0.138-2.342-0.138-4.256v-8c0-1.914 0.002-3.249 0.138-4.256 0.132-0.978 0.372-1.496 0.741-1.865zM12 8.333c-0.552 0-1 0.448-1 1s0.448 1 1 1h8c0.552 0 1-0.448 1-1s-0.448-1-1-1h-8zM11 14.667c0-0.552 0.448-1 1-1h5.333c0.552 0 1 0.448 1 1s-0.448 1-1 1h-5.333c-0.552 0-1-0.448-1-1zM12 19c-0.552 0-1 0.448-1 1s0.448 1 1 1h2.667c0.552 0 1-0.448 1-1s-0.448-1-1-1h-2.667z"></path>
</symbol>
<symbol id="chanels" viewBox="0 0 32 32">
<path fill="#636f7e" style="fill: var(--color1, #636f7e)" opacity="0.16" d="M20 6.667c0-2.209 1.791-4 4-4s4 1.791 4 4c0 2.209-1.791 4-4 4s-4-1.791-4-4zM2.667 16c0-2.209 1.791-4 4-4s4 1.791 4 4c0 2.209-1.791 4-4 4s-4-1.791-4-4zM24 21.333c-2.209 0-4 1.791-4 4s1.791 4 4 4c2.209 0 4-1.791 4-4s-1.791-4-4-4z"></path>
<path fill="#00a3ff" style="fill: var(--color2, #00a3ff)" d="M19.1 5.667c0.463-2.282 2.481-4 4.9-4 2.761 0 5 2.239 5 5s-2.239 5-5 5c-2.419 0-4.437-1.718-4.9-4h-7.1c-2.091 0-3.837 1.482-4.244 3.452 2.237 0.497 3.91 2.494 3.91 4.881s-1.673 4.384-3.91 4.881c0.407 1.971 2.152 3.452 4.244 3.452h7.1c0.463-2.282 2.481-4 4.9-4 2.761 0 5 2.239 5 5s-2.239 5-5 5c-2.419 0-4.437-1.718-4.9-4h-7.1c-3.188 0-5.826-2.355-6.268-5.421-2.315-0.438-4.065-2.471-4.065-4.913s1.751-4.475 4.065-4.913c0.442-3.065 3.080-5.421 6.268-5.421h7.1zM6.663 13c-1.655 0.002-2.997 1.344-2.997 3 0 1.657 1.343 3 3 3s3-1.343 3-3c0-1.657-1.343-3-3-3h-0.003zM24 9.667c1.657 0 3-1.343 3-3s-1.343-3-3-3c-1.657 0-3 1.343-3 3s1.343 3 3 3zM27 25.333c0 1.657-1.343 3-3 3s-3-1.343-3-3c0-1.657 1.343-3 3-3s3 1.343 3 3z"></path>
</symbol>
<symbol id="inbox" viewBox="0 0 32 32">
<path fill="#636f7e" style="fill: var(--color1, #636f7e)" opacity="0.16" d="M12.41 28h7.181c2.315 0 3.472 0 4.422-0.378 1.12-0.445 2.057-1.258 2.656-2.304 0.508-0.886 0.672-2.032 0.999-4.324v-0c0.106-0.741 0.159-1.111 0.064-1.404-0.111-0.345-0.359-0.63-0.685-0.789-0.277-0.135-0.651-0.135-1.399-0.135h-1.911c-0.953 0-1.429 0-1.856 0.149-0.261 0.091-0.506 0.222-0.727 0.389-0.361 0.273-0.625 0.669-1.154 1.462s-0.793 1.189-1.154 1.462c-0.221 0.167-0.466 0.298-0.727 0.389-0.427 0.149-0.904 0.149-1.856 0.149h-0.526c-0.953 0-1.429 0-1.856-0.149-0.261-0.091-0.506-0.222-0.727-0.389-0.361-0.273-0.626-0.669-1.154-1.462s-0.793-1.189-1.154-1.462c-0.221-0.167-0.466-0.298-0.727-0.389-0.427-0.149-0.904-0.149-1.856-0.149h-1.911c-0.748 0-1.122 0-1.399 0.135-0.326 0.159-0.573 0.444-0.685 0.789-0.094 0.293-0.042 0.663 0.064 1.404 0.327 2.292 0.491 3.437 0.999 4.324 0.6 1.046 1.536 1.858 2.656 2.304 0.949 0.378 2.107 0.378 4.422 0.378z"></path>
<path fill="#00a3ff" style="fill: var(--color2, #00a3ff)" d="M15.848 3h-0.065c-1.986 0-3.568-0-4.831 0.153-1.304 0.158-2.383 0.489-3.312 1.231s-1.491 1.72-1.934 2.957c-0.429 1.198-0.78 2.74-1.22 4.677l-0.847 3.726c-0.177 0.78-0.279 1.226-0.345 1.68-0.117 0.803-0.151 1.616-0.099 2.426 0.029 0.457 0.094 0.911 0.207 1.702l0.006 0.045 0.027 0.187c0.239 1.675 0.392 2.746 0.817 3.63 0.757 1.573 2.13 2.764 3.794 3.291 0.935 0.296 2.018 0.296 3.709 0.296h8.488c1.692 0 2.774 0.001 3.709-0.296 1.664-0.527 3.037-1.718 3.794-3.291 0.425-0.884 0.578-1.955 0.817-3.63v0l0.027-0.187 0.007-0.045c0.113-0.792 0.178-1.245 0.207-1.702 0.051-0.81 0.018-1.623-0.099-2.426-0.066-0.453-0.168-0.9-0.345-1.679l-0.010-0.045-0.837-3.681c-0.44-1.937-0.791-3.479-1.22-4.677-0.443-1.237-1.005-2.216-1.934-2.957s-2.008-1.073-3.312-1.231c-1.263-0.153-2.845-0.153-4.831-0.153h-0.37zM8.887 5.947c0.531-0.424 1.202-0.675 2.305-0.808 1.129-0.137 2.59-0.138 4.656-0.138h0.305c2.066 0 3.527 0.002 4.656 0.138 1.102 0.133 1.774 0.385 2.305 0.808s0.925 1.023 1.299 2.068c0.384 1.071 0.709 2.495 1.167 4.509l0.822 3.617c0.182 0.802 0.266 1.173 0.32 1.525l-3.126-0c-0.813-0.001-1.453-0.001-2.044 0.205-0.359 0.125-0.696 0.306-0.999 0.535-0.5 0.377-0.854 0.91-1.305 1.587l-0.079 0.119c-0.568 0.852-0.731 1.072-0.924 1.218-0.138 0.104-0.291 0.186-0.454 0.243-0.229 0.080-0.502 0.093-1.526 0.093h-0.526c-1.024 0-1.297-0.013-1.527-0.093-0.163-0.057-0.316-0.139-0.454-0.243-0.194-0.146-0.356-0.366-0.924-1.218l-0.079-0.119c-0.45-0.677-0.805-1.209-1.305-1.587-0.303-0.229-0.64-0.409-0.999-0.535-0.591-0.207-1.231-0.206-2.044-0.205l-3.126 0c0.054-0.352 0.137-0.723 0.32-1.525l0.822-3.617c0.458-2.015 0.783-3.439 1.167-4.509 0.374-1.045 0.768-1.645 1.299-2.068zM5.188 19.667h3.075c1.024 0 1.297 0.013 1.526 0.093 0.163 0.057 0.316 0.139 0.454 0.243 0.194 0.146 0.356 0.366 0.924 1.218l0.079 0.119c0.45 0.677 0.805 1.209 1.305 1.587 0.303 0.229 0.64 0.409 0.999 0.535 0.591 0.207 1.231 0.206 2.044 0.205h0.811c0.813 0.001 1.453 0.001 2.044-0.205 0.359-0.125 0.696-0.306 0.999-0.535 0.5-0.377 0.854-0.91 1.305-1.587l0.079-0.119c0.568-0.852 0.731-1.072 0.924-1.218 0.138-0.104 0.291-0.186 0.454-0.243 0.229-0.080 0.502-0.093 1.527-0.093h3.075c-0.001 0.019-0.002 0.037-0.003 0.055-0.023 0.37-0.076 0.742-0.197 1.591-0.275 1.927-0.392 2.663-0.666 3.233-0.518 1.076-1.457 1.891-2.596 2.252-0.602 0.191-1.348 0.202-3.294 0.202h-8.11c-1.946 0-2.692-0.012-3.294-0.202-1.139-0.361-2.078-1.175-2.596-2.252-0.274-0.569-0.391-1.306-0.666-3.233-0.121-0.849-0.174-1.222-0.197-1.591-0.001-0.019-0.002-0.037-0.003-0.055z"></path>
</symbol>
<symbol id="signed" viewBox="0 0 32 32">
<path fill="#636f7e" style="fill: var(--color1, #636f7e)" opacity="0.16" d="M23.333 4.667l-5.244 5.244c-1.038 1.038-1.557 1.557-1.914 2.188s-0.535 1.343-0.891 2.767l-0.617 2.467 2.467-0.617c1.424-0.356 2.136-0.534 2.767-0.891s1.15-0.876 2.188-1.914v0l5.244-5.244c0.106-0.106 0.159-0.159 0.202-0.206 0.925-1.017 0.925-2.57 0-3.587-0.043-0.047-0.096-0.1-0.202-0.206v-0c-0.106-0.106-0.159-0.159-0.206-0.202-1.017-0.925-2.57-0.925-3.587 0-0.047 0.043-0.1 0.096-0.206 0.202z"></path>
<path fill="#00a3ff" style="fill: var(--color2, #00a3ff)" d="M26.454 5.205c-0.636-0.578-1.606-0.578-2.242 0-0.025 0.023-0.057 0.055-0.172 0.169l-0.409 0.409c-0.032 1.435 1.151 2.618 2.586 2.586l0.409-0.409c0.114-0.114 0.146-0.147 0.169-0.172 0.578-0.636 0.578-1.606 0-2.242-0.023-0.025-0.055-0.058-0.169-0.172s-0.147-0.146-0.172-0.169zM27.381 10.033l0.676-0.676c0.090-0.090 0.159-0.159 0.218-0.224 1.271-1.399 1.271-3.534 0-4.933-0.059-0.065-0.128-0.134-0.218-0.224l-0-0-0.034-0.034v-0c-0.090-0.090-0.159-0.159-0.224-0.218-1.398-1.271-3.534-1.271-4.933 0-0.065 0.059-0.134 0.128-0.224 0.218l-0.017 0.017-0.66 0.66c-0.005 0.005-0.010 0.010-0.015 0.015l-4.667 4.667c-0.945 0.944-1.554 1.554-1.979 2.304s-0.634 1.587-0.958 2.883l-0.034 0.135-0.617 2.467c-0.085 0.341 0.015 0.701 0.263 0.95s0.609 0.348 0.95 0.263l2.602-0.65c1.296-0.324 2.132-0.533 2.883-0.958s1.36-1.035 2.305-1.979l0.098-0.098 4.569-4.569c0.005-0.005 0.010-0.010 0.015-0.015zM24.522 10.063c-1.18-0.461-2.125-1.405-2.586-2.586l-3.14 3.14c-1.076 1.076-1.477 1.488-1.751 1.974s-0.422 1.041-0.791 2.517l-0.213 0.85 0.85-0.213c1.476-0.369 2.032-0.517 2.517-0.791s0.898-0.676 1.974-1.751l3.14-3.14zM14.591 3h1.409c0.552 0 1 0.448 1 1s-0.448 1-1 1h-1.333c-2.542 0-4.349 0.002-5.719 0.186-1.341 0.18-2.114 0.519-2.679 1.083s-0.902 1.337-1.083 2.679c-0.184 1.37-0.186 3.176-0.186 5.719v2.667c0 2.543 0.002 4.349 0.186 5.719 0.18 1.341 0.519 2.114 1.083 2.679s1.337 0.903 2.679 1.083c1.37 0.184 3.176 0.186 5.719 0.186h2.667c2.542 0 4.349-0.002 5.719-0.186 1.341-0.18 2.114-0.519 2.679-1.083s0.903-1.337 1.083-2.679c0.184-1.37 0.186-3.176 0.186-5.719v-1.333c0-0.552 0.448-1 1-1s1 0.448 1 1v1.409c0 2.45 0 4.391-0.204 5.91-0.21 1.563-0.653 2.828-1.651 3.826s-2.263 1.441-3.826 1.651c-1.519 0.204-3.46 0.204-5.91 0.204h-2.817c-2.45 0-4.391 0-5.91-0.204-1.563-0.21-2.829-0.653-3.826-1.651s-1.441-2.263-1.651-3.826c-0.204-1.519-0.204-3.46-0.204-5.91v0-2.817c0-2.45-0-4.391 0.204-5.91 0.21-1.563 0.653-2.829 1.651-3.826s2.263-1.441 3.826-1.651c1.519-0.204 3.46-0.204 5.91-0.204z"></path>
</symbol>
<symbol id="logo-icon" viewBox="0 0 32 32">
<path fill="#acc1cd" style="fill: var(--color3, #acc1cd); stroke: var(--color2, #00a3ff)" stroke="#00a3ff" stroke-linejoin="miter" stroke-linecap="butt" stroke-miterlimit="4" stroke-width="1.7143" d="M5.068 0.857h21.863c0.789 0 1.429 0.64 1.429 1.429v27.429c0 0.789-0.64 1.429-1.429 1.429h-21.863c-0.789 0-1.429-0.64-1.429-1.429v-27.429c0-0.789 0.64-1.429 1.429-1.429z"></path>
<path fill="#e9e9e9" style="fill: var(--color4, #e9e9e9)" d="M1.391 1.391h18.087v6.957h-18.087v-6.957z"></path>
<path fill="#fff" style="fill: var(--color5, #fff)" d="M19.478 1.391h11.13v6.957h-11.13v-6.957z"></path>
<path fill="#e9e9e9" style="fill: var(--color4, #e9e9e9)" d="M1.391 12.522h18.087v6.957h-18.087v-6.957z"></path>
<path fill="#fff" style="fill: var(--color5, #fff)" d="M19.478 12.522h11.13v6.957h-11.13v-6.957z"></path>
<path fill="#e9e9e9" style="fill: var(--color4, #e9e9e9)" d="M1.391 23.652h18.087v6.957h-18.087v-6.957z"></path>
<path fill="#fff" style="fill: var(--color5, #fff)" d="M19.478 23.652h11.13v6.957h-11.13v-6.957z"></path>
<path fill="none" stroke="#00a3ff" style="stroke: var(--color2, #00a3ff)" stroke-linejoin="miter" stroke-linecap="butt" stroke-miterlimit="4" stroke-width="1.7143" d="M4.571 11.988h22.857c2.051 0 3.714 1.663 3.714 3.714v0.596c0 2.051-1.663 3.714-3.714 3.714h-22.857c-2.051 0-3.714-1.663-3.714-3.714v-0.596c0-2.051 1.663-3.714 3.714-3.714z"></path>
<path fill="#d9d9d9" style="fill: var(--color6, #d9d9d9)" d="M23.304 15.304v0c0.576 0 1.043 0.467 1.043 1.043v0c0 0.576-0.467 1.043-1.043 1.043v0c-0.576 0-1.043-0.467-1.043-1.043v0c0-0.576 0.467-1.043 1.043-1.043z"></path>
<path fill="#00a3ff" style="fill: var(--color2, #00a3ff)" d="M27.478 15.304v0c0.576 0 1.043 0.467 1.043 1.043v0c0 0.576-0.467 1.043-1.043 1.043v0c-0.576 0-1.043-0.467-1.043-1.043v0c0-0.576 0.467-1.043 1.043-1.043z"></path>
<path fill="none" stroke="#00a3ff" style="stroke: var(--color2, #00a3ff)" stroke-linejoin="miter" stroke-linecap="butt" stroke-miterlimit="4" stroke-width="1.7143" d="M4.571 23.118h22.857c2.051 0 3.714 1.663 3.714 3.714v0.596c0 2.051-1.663 3.714-3.714 3.714h-22.857c-2.051 0-3.714-1.663-3.714-3.714v-0.596c0-2.051 1.663-3.714 3.714-3.714z"></path>
<path fill="#f90" style="fill: var(--color7, #f90)" d="M23.304 26.435v0c0.576 0 1.043 0.467 1.043 1.043v0c0 0.576-0.467 1.043-1.043 1.043v0c-0.576 0-1.043-0.467-1.043-1.043v0c0-0.576 0.467-1.043 1.043-1.043z"></path>
<path fill="#00a3ff" style="fill: var(--color2, #00a3ff)" d="M27.478 26.435v0c0.576 0 1.043 0.467 1.043 1.043v0c0 0.576-0.467 1.043-1.043 1.043v0c-0.576 0-1.043-0.467-1.043-1.043v0c0-0.576 0.467-1.043 1.043-1.043z"></path>
<path fill="none" stroke="#00a3ff" style="stroke: var(--color2, #00a3ff)" stroke-linejoin="miter" stroke-linecap="butt" stroke-miterlimit="4" stroke-width="1.7143" d="M4.571 0.857h22.857c2.051 0 3.714 1.663 3.714 3.714v0.596c0 2.051-1.663 3.714-3.714 3.714h-22.857c-2.051 0-3.714-1.663-3.714-3.714v-0.596c0-2.051 1.663-3.714 3.714-3.714z"></path>
<path fill="#d9d9d9" style="fill: var(--color6, #d9d9d9)" d="M23.304 4.174v0c0.576 0 1.043 0.467 1.043 1.043v0c0 0.576-0.467 1.043-1.043 1.043v0c-0.576 0-1.043-0.467-1.043-1.043v0c0-0.576 0.467-1.043 1.043-1.043z"></path>
<path fill="#00a3ff" style="fill: var(--color2, #00a3ff)" d="M27.478 4.174v0c0.576 0 1.043 0.467 1.043 1.043v0c0 0.576-0.467 1.043-1.043 1.043v0c-0.576 0-1.043-0.467-1.043-1.043v0c0-0.576 0.467-1.043 1.043-1.043z"></path>
</symbol>
</defs>
</svg>
